# xmcd
#
# Track frame offsets: 
#        150
#        11104
#        21375
#        31793
#        41782
#        53510
#        67086
#        78714
#        88932
#        103946
#
# Disc length: 1556 seconds
#
# Revision: 0
# Processed by: cddbd v1.5.2PL0 Copyright (c) Steve Scherf et al.
# Submitted via: ExactAudioCopy v0.99pb3
#
DISCID=8606120a
DTITLE=Robert Johnson - Love in Vain
DYEAR=1900
DGENRE=Blues
TTITLE0=Love in Vain
TTITLE1=Stop Breakin' Down Blues
TTITLE2=Malted Milk
TTITLE3=Little Queen of Spades
TTITLE4=Me and The Devil Blues
TTITLE5=Terraplane Blues
TTITLE6=Hellhound on my Tail
TTITLE7=Milkcow's Cali Blues
TTITLE8=They're Red Hot
TTITLE9=32-20 Blues
EXTD=
EXTT0=
EXTT1=
EXTT2=
EXTT3=
EXTT4=
EXTT5=
EXTT6=
EXTT7=
EXTT8=
EXTT9=
PLAYORDER=
